<svg xmlns="http://www.w3.org/2000/svg" width="533.333" height="533.333" preserveAspectRatio="xMidYMid meet" version="1.0" viewBox="0 0 400 400"><metadata>Created by potrace 1.11, written by Peter Selinger 2001-2013</metadata><g fill="#000" stroke="none"><path d="M1600 2781 c-190 -60 -335 -212 -385 -401 -12 -45 -15 -159 -15 -624 l0 -569 83 7 c152 13 275 49 389 117 126 74 248 207 302 330 l23 53 70 12 c207 35 385 211 439 435 16 65 17 67 58 79 217 64 385 295 386 533 l0 47 -647 -1 c-591 0 -653 -2 -703 -18z m1237 -122 c-16 -120 -130 -260 -264 -326 l-78 -38 -588 -3 c-495 -2 -588 0 -593 11 -8 21 33 135 69 192 58 91 133 149 247 191 27 10 167 13 624 13 l589 1 -6 -41z m-432 -486 c-27 -144 -130 -280 -255 -336 -109 -49 -215 -56 -652 -40 l-188 6 0 204 0 203 551 0 551 0 -7 -37z m-535 -479 c0 -3 -14 -34 -32 -68 -19 -37 -62 -91 -108 -136 -102 -102 -206 -156 -352 -185 l-68 -13 0 204 0 204 280 0 c154 0 280 -3 280 -6z" transform="translate(0.000000,400.000000) scale(0.100000,-0.100000)"/></g></svg>